<svg width="7" height="11" viewBox="0 0 7 11" fill="none" xmlns="http://www.w3.org/2000/svg">
<path d="M0.289565 1.98978L3.70593 5.5L0.289565 9.01022C0.20807 9.09395 0.167323 9.19311 0.167323 9.30769C0.167323 9.42228 0.20807 9.52143 0.289565 9.60517L1.35758 10.7025C1.43907 10.7863 1.53558 10.8281 1.6471 10.8281C1.75862 10.8281 1.85513 10.7863 1.93662 10.7025L6.71052 5.79748C6.79202 5.71374 6.83276 5.61458 6.83276 5.5C6.83276 5.38542 6.79202 5.28626 6.71052 5.20252L1.93662 0.297476C1.85513 0.213742 1.75862 0.171875 1.6471 0.171875C1.53558 0.171875 1.43907 0.213742 1.35758 0.297476L0.289565 1.39483C0.20807 1.47857 0.167323 1.57772 0.167323 1.69231C0.167323 1.80689 0.20807 1.90605 0.289565 1.98978Z" fill="#FF3366"/>
</svg>
