<svg width="6" height="14" viewBox="0 0 6 14" fill="none" xmlns="http://www.w3.org/2000/svg">
<g opacity="0.5">
<g clip-path="url(#clip0)">
<path d="M5.97657 10.5243C5.92969 10.4217 5.85417 10.3704 5.75001 10.3704H4.00001V0.259259C4.00001 0.183642 3.97657 0.121528 3.92969 0.072917C3.88282 0.0243063 3.82292 0 3.75001 0H2.25001C2.17709 0 2.11719 0.0243063 2.07032 0.072917C2.02344 0.121528 2.00001 0.183642 2.00001 0.259259V10.3704H0.250006C0.140631 10.3704 0.06511 10.4217 0.0234433 10.5243C-0.0182234 10.6269 -0.00520252 10.7215 0.0625058 10.8079L2.79688 13.919C2.84896 13.973 2.90886 14 2.97657 14C3.04948 14 3.11198 13.973 3.16407 13.919L5.93751 10.8079C6.00521 10.7215 6.01823 10.6269 5.97657 10.5243Z" fill="black" fill-opacity="0.8"/>
</g>
</g>
<defs>
<clipPath id="clip0">
<rect width="6" height="14" fill="white"/>
</clipPath>
</defs>
</svg>
